<svg xmlns="http://www.w3.org/2000/svg" xmlns:xlink="http://www.w3.org/1999/xlink" width="200" height="240" viewBox="0 0 200 240" fill="none">
<g opacity="0.3">
<g opacity="0.3">
<path d="M164.42 189.091L164.42 49.2394L139.67 49.2394C134.203 49.235 128.961 47.0599 125.096 43.1957C121.23 39.3293 119.055 34.087 119.05 28.62L119.05 0L26.9106 0C19.7731 0 12.9283 2.83608 7.88229 7.88184C2.8346 12.9276 0 19.7726 0 26.9093L0 189.13C0.0098652 196.26 2.85104 203.094 7.89545 208.133C12.9415 213.17 19.7797 216 26.9106 216L137.509 216C144.647 216 151.492 213.164 156.538 208.118C161.585 203.072 164.42 196.227 164.42 189.091Z"   fill="#5B5B5B" >
</path>
</g>
</g>
<path d="M164.42 49.24L139.67 49.24C134.203 49.2346 128.961 47.0606 125.096 43.1948C121.23 39.329 119.055 34.0874 119.05 28.6198L119.05 0L164.42 49.24Z"   fill="#5B5B5B" >
</path>
<path d="M58.9003 170.6L183.94 170.6C192.81 170.6 200 177.79 200 186.66L200 223.94C200 232.81 192.81 240 183.94 240L58.9003 240C50.0302 240 42.8401 232.81 42.8401 223.94L42.8401 186.66C42.8401 177.79 50.0302 170.6 58.9003 170.6Z"   fill="#5B5B5B" >
</path>
<path d="M53.5405 107.104C54.6138 106.604 56.6139 105.77 59.5403 104.604L63.2101 103.103L64.53 102.633L64.76 102.534C64.8226 102.52 64.8874 102.52 64.95 102.534C65.0981 102.468 65.2584 102.434 65.4201 102.433C65.7299 102.416 66.0399 102.462 66.3317 102.566C66.6238 102.671 66.8919 102.833 67.12 103.043C67.3138 103.226 67.4676 103.446 67.5724 103.69C67.6775 103.935 67.7311 104.198 67.73 104.464L67.73 107.004C67.7205 107.475 67.5746 107.934 67.31 108.324C67.0318 108.76 66.617 109.09 66.1303 109.264L50.3607 115.715L66.1303 122.165C66.5996 122.359 67.0076 122.677 67.31 123.086C67.5849 123.459 67.7322 123.912 67.73 124.376L67.73 126.916C67.7303 127.185 67.6764 127.451 67.5716 127.698C67.4668 127.946 67.3133 128.169 67.12 128.356C66.8957 128.573 66.6287 128.741 66.3361 128.849C66.0435 128.958 65.7318 129.004 65.4201 128.986C65.2595 128.984 65.1 128.954 64.95 128.896L64.53 128.756L63.2101 128.286L59.5703 126.806L53.5707 124.316L45.8508 121.065L43.9209 120.265C43.3011 120.015 42.6509 119.735 41.9911 119.415C41.5814 119.224 41.2308 118.927 40.9755 118.554C40.7204 118.181 40.5704 117.746 40.541 117.295L40.5111 114.195C40.4972 113.765 40.6276 113.342 40.881 112.994C41.1845 112.605 41.549 112.267 41.9608 111.994C42.5847 111.671 43.2296 111.391 43.891 111.154L45.8209 110.354L53.5405 107.104Z"   fill="#5B5B5B" >
</path>
<path d="M86.1857 131.35C85.7466 131.11 85.379 130.758 85.1199 130.329C84.9052 130.021 84.7335 129.684 84.6101 129.329L84.2799 128.439L77.0801 112.53L76.5601 111.351C75.9599 110.07 74.8001 107.531 73.08 103.731C70.8467 98.898 69.73 96.2482 69.73 95.7816C69.7302 95.5004 69.7944 95.2226 69.9175 94.9699C70.0405 94.7172 70.2192 94.4953 70.4401 94.3216C70.939 93.8998 71.577 93.6787 72.23 93.7015L74.5701 93.7015C75.063 93.6931 75.5497 93.8155 75.9799 94.056C76.4104 94.2966 76.7692 94.6469 77.02 95.0714L77.5401 96.0715L77.8701 96.9615L79.75 101.101L85.0701 112.87L85.77 114.37L89.0699 121.62C90.335 124.22 91.4502 126.891 92.41 129.619C92.4082 129.899 92.3435 130.174 92.2206 130.425C92.0977 130.676 91.9194 130.896 91.6999 131.069C91.2014 131.492 90.5631 131.713 89.91 131.689L87.62 131.699C87.1194 131.711 86.6248 131.591 86.1857 131.35Z"   fill="#5B5B5B" >
</path>
<path d="M97.2001 128.945L96.3303 129.005C96.0108 129.026 95.6906 128.981 95.3896 128.872C95.0886 128.764 94.8131 128.595 94.5801 128.375C94.1956 127.994 93.9762 127.476 93.9702 126.935L93.9702 124.395C93.9656 123.933 94.1057 123.482 94.3702 123.105C94.6693 122.685 95.0872 122.364 95.5701 122.185L111.39 115.734L95.5701 109.294C95.0899 109.083 94.6829 108.735 94.4004 108.293C94.1277 107.914 93.9776 107.46 93.9702 106.993L93.9702 104.413C93.9667 104.149 94.0184 103.888 94.1217 103.645C94.225 103.402 94.3778 103.183 94.5703 103.003C95.0402 102.58 95.6587 102.361 96.2901 102.393C96.4364 102.39 96.5808 102.425 96.7102 102.493C96.7961 102.478 96.8842 102.478 96.9701 102.493L97.1803 102.593C97.1202 102.593 97.54 102.713 98.4501 103.063L102.17 104.563C101.977 104.476 103.977 105.31 108.17 107.063C110.457 108.004 113.077 109.117 116.03 110.404L116.78 110.684L117.86 111.114C118.496 111.34 119.112 111.621 119.7 111.954C120.12 112.145 120.479 112.45 120.736 112.833C120.994 113.216 121.141 113.663 121.16 114.124L121.16 117.224C121.151 117.649 121.011 118.061 120.76 118.404C120.481 118.792 120.119 119.113 119.7 119.344C119.13 119.624 118.46 119.924 117.7 120.244L115.7 121.044L98.2801 128.335C97.7801 128.585 97.4802 128.745 97.3902 128.805L97.2001 128.945Z"   fill="#5B5B5B" >
</path>
<g >
<path     fill="#FFFFFF"  d="M73.0101 222.4L81.9701 222.4C90.6501 222.4 96.6501 217.72 96.6501 207.36C96.6501 197 90.6501 192.6 81.5701 192.6L73.0101 192.6L73.0101 222.4ZM80.1701 216.64L80.1701 198.32L81.1301 198.32C85.9301 198.32 89.3301 200.28 89.3301 207.36C89.3301 214.44 85.9301 216.64 81.1301 216.64L80.1701 216.64ZM102.17 222.4L109.33 222.4L109.33 211.04L119.49 211.04L119.49 205.08L109.33 205.08L109.33 198.56L121.17 198.56L121.17 192.6L102.17 192.6L102.17 222.4ZM126.33 222.4L145.09 222.4L145.09 216.4L133.49 216.4L133.49 192.6L126.33 192.6L126.33 222.4ZM156.01 222.4L163.17 222.4L163.17 198.56L171.25 198.56L171.25 192.6L147.97 192.6L147.97 198.56L156.01 198.56L156.01 222.4Z">
</path>
</g>
</svg>
