<svg xmlns="http://www.w3.org/2000/svg" xmlns:xlink="http://www.w3.org/1999/xlink" width="200.010009765625" height="240.010009765625" viewBox="0 0 200.010009765625 240.010009765625" fill="none">
<g opacity="0.3">
<g opacity="0.3">
<path d="M164.43 189.13L164.43 49.2506L139.67 49.2506C134.203 49.2442 128.961 47.0708 125.095 43.2037C121.229 39.3387 119.056 34.0976 119.051 28.6296L119.051 0L26.9205 0C23.3852 -0.0021604 19.8845 0.693488 16.6189 2.0459C13.3534 3.39615 10.3854 5.3794 7.88606 7.87898C5.38508 10.3764 3.40206 13.3448 2.0488 16.6092C0.697183 19.8757 0 23.3755 0 26.9099L0 189.13C0 192.664 0.697183 196.164 2.0488 199.431C3.40206 202.695 5.38508 205.664 7.88606 208.161C10.3854 210.661 13.3534 212.642 16.6189 213.994C19.8845 215.347 23.3852 216.042 26.9205 216.04L137.519 216.04C141.055 216.04 144.554 215.344 147.818 213.992C151.083 212.64 154.05 210.656 156.549 208.159C159.047 205.659 161.03 202.693 162.381 199.429C163.734 196.162 164.43 192.664 164.43 189.13Z"   fill="#0072FF" >
</path>
</g>
</g>
<path d="M164.43 49.25L139.67 49.25C134.203 49.2446 128.961 47.0707 125.095 43.2046C121.23 39.3389 119.055 34.0973 119.05 28.63L119.05 0L164.43 49.25Z"   fill="#0072FF" >
</path>
<path d="M24.7118 77.3389C25.0595 76.9905 25.4725 76.7142 25.9265 76.5257C26.3805 76.3371 26.8677 76.24 27.3605 76.24L130.6 76.24C131.595 76.24 132.548 76.6351 133.252 77.3384C133.955 78.0416 134.35 78.9954 134.35 79.99C134.348 80.9828 133.951 81.9342 133.248 82.6353C132.545 83.3364 131.593 83.73 130.6 83.73L27.3605 83.73C26.3683 83.73 25.4171 83.336 24.7151 82.6345C24.0142 81.9331 23.62 80.9819 23.62 79.99C23.6189 79.498 23.7141 79.0106 23.9024 78.5557C24.0895 78.1007 24.3641 77.6872 24.7118 77.3389Z"   fill="#0072FF" >
</path>
<path d="M23.9024 100.926C24.0895 100.471 24.3641 100.057 24.7118 99.7089C25.0595 99.3605 25.4725 99.0842 25.9265 98.8957C26.3805 98.7071 26.8677 98.61 27.3605 98.61L130.6 98.61C131.595 98.61 132.548 99.0049 133.252 99.7081C133.955 100.411 134.35 101.365 134.35 102.36C134.348 103.353 133.951 104.304 133.248 105.005C132.545 105.706 131.593 106.1 130.6 106.1L27.3605 106.1C26.3683 106.1 25.4171 105.706 24.7151 105.005C24.0142 104.303 23.62 103.352 23.62 102.36C23.6189 101.868 23.7141 101.381 23.9024 100.926Z"   fill="#0072FF" >
</path>
<path d="M130.6 128.47L27.3605 128.47C26.8677 128.47 26.3805 128.373 25.9265 128.184C25.4725 127.996 25.0595 127.72 24.7118 127.371C24.3641 127.023 24.0895 126.609 23.9024 126.154C23.7141 125.699 23.6189 125.212 23.62 124.72C23.62 123.728 24.0142 122.777 24.7151 122.075C25.4171 121.374 26.3683 120.98 27.3605 120.98L130.6 120.98C131.593 120.98 132.545 121.374 133.248 122.075C133.951 122.776 134.348 123.727 134.35 124.72C134.35 125.715 133.955 126.668 133.252 127.372C132.548 128.075 131.595 128.47 130.6 128.47Z"   fill="#0072FF" >
</path>
<path d="M25.9265 150.554C25.4722 150.366 25.0592 150.089 24.712 149.741C24.3648 149.393 24.089 148.979 23.9021 148.524C23.7145 148.069 23.6186 147.582 23.62 147.09C23.62 146.098 24.0141 145.147 24.7155 144.445C25.4169 143.744 26.3682 143.35 27.3601 143.35L89.8799 143.35C90.8718 143.35 91.8231 143.744 92.5245 144.445C93.2259 145.147 93.62 146.098 93.62 147.09C93.6214 147.582 93.5255 148.069 93.3379 148.524C93.151 148.979 92.8759 149.393 92.528 149.741C92.1808 150.089 91.7678 150.366 91.3135 150.554C90.8592 150.743 90.372 150.84 89.8799 150.84L27.3601 150.84C26.868 150.84 26.3808 150.743 25.9265 150.554Z"   fill="#0072FF" >
</path>
<path d="M58.9102 170.61L183.95 170.61C192.82 170.61 200.01 177.801 200.01 186.67L200.01 223.95C200.01 232.819 192.82 240.01 183.95 240.01L58.9102 240.01C50.04 240.01 42.85 232.819 42.85 223.95L42.85 186.67C42.85 177.801 50.04 170.61 58.9102 170.61Z"   fill="#0072FF" >
</path>
<path d="M76.2199 213.38L76.2199 220.65L68.6899 220.65L68.6899 213.38L76.2199 213.38Z"   fill="#FFFFFF" >
</path>
<path d="M87.2892 196.955L87.2892 214.135L90.7288 214.135C93.1414 214.281 95.5151 213.473 97.338 211.885C98.1508 211.051 98.7805 210.056 99.1868 208.964C99.5931 207.873 99.7673 206.708 99.6978 205.545C99.7676 204.384 99.5939 203.221 99.1874 202.131C98.7811 201.041 98.1511 200.047 97.338 199.215C95.5164 197.618 93.1371 196.805 90.7188 196.955L87.2892 196.955ZM80 220.645L80 190.575L91.3586 190.575C94.2626 190.504 97.1397 191.145 99.7376 192.445C102.025 193.633 103.91 195.47 105.157 197.725C106.45 200.126 107.101 202.819 107.047 205.545C107.098 208.281 106.448 210.983 105.157 213.395C103.905 215.669 102.014 217.526 99.7178 218.735C97.1335 220.057 94.2605 220.713 91.3586 220.645L80 220.645Z" fill-rule="evenodd"  fill="#FFFFFF" >
</path>
<path d="M140.658 205.51C140.704 208.29 140.014 211.033 138.658 213.46C137.363 215.761 135.465 217.666 133.169 218.969C130.832 220.304 128.182 220.994 125.49 220.969C122.799 220.993 120.149 220.303 117.811 218.969C115.516 217.669 113.62 215.763 112.332 213.46C110.972 211.034 110.282 208.29 110.333 205.51C110.281 202.736 110.971 199.998 112.332 197.58C113.627 195.287 115.521 193.39 117.811 192.091C120.149 190.757 122.799 190.067 125.49 190.091C128.188 190.065 130.845 190.755 133.189 192.091C135.477 193.39 137.367 195.288 138.658 197.58C140.011 200.002 140.701 202.737 140.658 205.51ZM131.129 211.8C132.611 210.05 133.37 207.8 133.249 205.51C133.369 203.223 132.619 200.976 131.149 199.22C130.431 198.439 129.551 197.824 128.57 197.42C127.588 197.016 126.53 196.831 125.47 196.88C124.413 196.832 123.358 197.013 122.377 197.412C121.397 197.811 120.514 198.417 119.791 199.19C118.316 200.955 117.566 203.213 117.691 205.51C117.565 207.798 118.316 210.047 119.791 211.8C120.51 212.581 121.39 213.195 122.371 213.599C123.352 214.003 124.41 214.188 125.47 214.14C126.527 214.185 127.581 213.999 128.558 213.595C129.536 213.191 130.413 212.578 131.129 211.8Z" fill-rule="evenodd"  fill="#FFFFFF" >
</path>
<path d="M143.854 205.507C143.797 202.733 144.415 199.988 145.653 197.506C146.807 195.243 148.588 193.362 150.783 192.086C153.128 190.759 155.788 190.088 158.482 190.145C161.918 190.054 165.279 191.169 167.981 193.295C170.516 195.359 172.241 198.254 172.85 201.466L165.151 201.466C164.631 200.135 163.722 198.991 162.541 198.186C161.297 197.376 159.836 196.961 158.352 196.996C157.372 196.965 156.397 197.159 155.504 197.565C154.611 197.971 153.824 198.577 153.202 199.336C151.81 201.117 151.101 203.338 151.203 205.597C151.101 207.846 151.81 210.057 153.202 211.827C153.829 212.579 154.618 213.177 155.51 213.578C156.402 213.978 157.374 214.169 158.352 214.137C159.837 214.177 161.299 213.762 162.541 212.947C163.715 212.157 164.624 211.031 165.151 209.717L172.85 209.717C172.231 212.92 170.508 215.805 167.981 217.868C165.261 219.945 161.901 221.006 158.482 220.868C155.788 220.925 153.128 220.254 150.783 218.928C148.588 217.652 146.807 215.77 145.653 213.507C144.414 211.026 143.796 208.28 143.854 205.507Z"   fill="#FFFFFF" >
</path>
</svg>
