<svg xmlns="http://www.w3.org/2000/svg" xmlns:xlink="http://www.w3.org/1999/xlink" width="200.010009765625" height="240.010009765625" viewBox="0 0 200.010009765625 240.010009765625" fill="none">
<g opacity="0.3">
<g opacity="0.3">
<path d="M16.6189 213.994C19.8845 215.347 23.3852 216.042 26.9205 216.04L137.519 216.04C144.657 216.04 151.501 213.206 156.549 208.159C161.595 203.112 164.43 196.266 164.43 189.13L164.43 49.2506L139.67 49.2506C134.203 49.2442 128.961 47.0708 125.095 43.2037C121.229 39.3387 119.056 34.0976 119.051 28.6296L119.051 0L26.9205 0C23.3852 -0.0021604 19.8845 0.693488 16.6189 2.0459C13.3534 3.39615 10.3854 5.3794 7.88606 7.87898C5.38508 10.3764 3.40206 13.3448 2.0488 16.6092C0.695539 19.8757 0 23.3755 0 26.9099L0 189.13C0 192.664 0.695539 196.164 2.0488 199.431C3.40206 202.695 5.38508 205.664 7.88606 208.161C10.3854 210.661 13.3534 212.642 16.6189 213.994Z"   fill="#0072FF" >
</path>
</g>
</g>
<path d="M164.43 49.25L139.67 49.25C134.203 49.2446 128.961 47.0707 125.096 43.2046C121.23 39.3389 119.055 34.0973 119.05 28.63L119.05 0L164.43 49.25Z"   fill="#0072FF" >
</path>
<path d="M133.248 82.6353C132.545 83.3364 131.593 83.73 130.6 83.73L27.3605 83.73C26.3683 83.73 25.4171 83.336 24.7151 82.6345C24.0142 81.9331 23.62 80.9819 23.62 79.99C23.6189 79.498 23.7141 79.0106 23.9024 78.5557C24.0895 78.1007 24.3641 77.6872 24.7118 77.3389C25.0595 76.9905 25.4725 76.7142 25.9265 76.5257C26.3805 76.3371 26.8677 76.24 27.3605 76.24L130.6 76.24C131.595 76.24 132.548 76.6351 133.252 77.3384C133.955 78.0416 134.35 78.9954 134.35 79.99C134.348 80.9828 133.951 81.9342 133.248 82.6353Z"   fill="#0072FF" >
</path>
<path d="M27.3605 98.61L130.6 98.61C131.595 98.61 132.548 99.0049 133.252 99.7081C133.955 100.411 134.35 101.365 134.35 102.36C134.348 103.353 133.951 104.304 133.248 105.005C132.545 105.706 131.593 106.1 130.6 106.1L27.3605 106.1C26.3683 106.1 25.4171 105.706 24.7151 105.005C24.0142 104.303 23.62 103.352 23.62 102.36C23.6189 101.868 23.7141 101.381 23.9024 100.926C24.0895 100.471 24.3641 100.057 24.7118 99.7089C25.0595 99.3605 25.4725 99.0842 25.9265 98.8957C26.3805 98.7071 26.8677 98.61 27.3605 98.61Z"   fill="#0072FF" >
</path>
<path d="M133.252 127.372C132.548 128.075 131.595 128.47 130.6 128.47L27.3605 128.47C26.8677 128.47 26.3805 128.373 25.9265 128.184C25.4725 127.996 25.0595 127.72 24.7118 127.371C24.3641 127.023 24.0895 126.609 23.9024 126.154C23.7141 125.699 23.6189 125.212 23.62 124.72C23.62 123.728 24.0142 122.777 24.7151 122.075C25.4171 121.374 26.3683 120.98 27.3605 120.98L130.6 120.98C131.593 120.98 132.545 121.374 133.248 122.075C133.951 122.776 134.348 123.727 134.35 124.72C134.35 125.715 133.955 126.668 133.252 127.372Z"   fill="#0072FF" >
</path>
<path d="M24.7152 144.445C25.4171 143.744 26.3681 143.35 27.3597 143.35L89.8603 143.35C90.8519 143.35 91.8029 143.744 92.5048 144.445C93.206 145.147 93.6 146.098 93.6 147.09C93.6014 147.582 93.5055 148.069 93.318 148.524C93.1304 148.979 92.8554 149.393 92.5083 149.741C92.1605 150.089 91.7483 150.366 91.2935 150.554C90.8393 150.743 90.3522 150.84 89.8603 150.84L27.3597 150.84C26.8678 150.84 26.3807 150.743 25.9265 150.554C25.4717 150.366 25.0595 150.089 24.7117 149.741C24.3646 149.393 24.0896 148.979 23.902 148.524C23.7145 148.069 23.6186 147.582 23.62 147.09C23.62 146.098 24.014 145.147 24.7152 144.445Z"   fill="#0072FF" >
</path>
<path d="M58.9102 170.61L183.95 170.61C192.82 170.61 200.01 177.801 200.01 186.67L200.01 223.95C200.01 232.819 192.82 240.01 183.95 240.01L58.9102 240.01C50.04 240.01 42.85 232.819 42.85 223.95L42.85 186.67C42.85 177.801 50.04 170.61 58.9102 170.61Z"   fill="#0072FF" >
</path>
<path d="M61.18 213.38L61.18 220.65L53.65 220.65L53.65 213.38L61.18 213.38Z"   fill="#FFFFFF" >
</path>
<path d="M75.6789 196.955L72.2392 196.955L72.2392 214.135L75.6789 214.135C78.095 214.283 80.4724 213.475 82.298 211.885C83.1108 211.051 83.7406 210.056 84.1469 208.964C84.5531 207.873 84.7273 206.708 84.6578 205.545C84.7276 204.384 84.554 203.221 84.1474 202.13C83.7411 201.04 83.1111 200.047 82.298 199.215C80.4762 197.618 78.0969 196.805 75.6789 196.955ZM76.3186 190.575C79.2224 190.505 82.0994 191.147 84.6976 192.445C86.9849 193.633 88.8703 195.47 90.1171 197.725C91.4098 200.126 92.0609 202.819 92.007 205.545C92.0584 208.281 91.4076 210.983 90.1171 213.395C88.8625 215.667 86.972 217.523 84.6776 218.735C82.0935 220.057 79.2205 220.713 76.3186 220.645L64.96 220.645L64.96 190.575L76.3186 190.575Z" fill-rule="evenodd"  fill="#FFFFFF" >
</path>
<path d="M110.435 214.14C111.492 214.184 112.546 213.997 113.523 213.593C114.501 213.189 115.378 212.577 116.096 211.8C117.578 210.05 118.337 207.8 118.216 205.51C118.336 203.223 117.586 200.976 116.116 199.22C115.398 198.439 114.517 197.824 113.535 197.42C112.554 197.016 111.495 196.831 110.435 196.88C109.377 196.832 108.322 197.013 107.341 197.412C106.36 197.811 105.478 198.417 104.754 199.19C103.279 200.955 102.528 203.213 102.654 205.51C102.528 207.798 103.279 210.047 104.754 211.8C105.473 212.581 106.354 213.195 107.335 213.599C108.317 214.003 109.375 214.188 110.435 214.14ZM123.627 197.58C124.981 200.001 125.671 202.737 125.627 205.51C125.678 208.29 124.988 211.034 123.627 213.46C122.339 215.763 120.443 217.669 118.146 218.969C115.808 220.304 113.157 220.994 110.465 220.969C107.773 220.994 105.122 220.304 102.784 218.969C100.487 217.669 98.5917 215.763 97.303 213.46C95.9424 211.034 95.2521 208.29 95.3027 205.51C95.2509 202.736 95.9415 199.998 97.303 197.58C98.5981 195.287 100.493 193.39 102.784 192.091C105.122 190.756 107.773 190.066 110.465 190.091C113.16 190.067 115.814 190.757 118.156 192.091C120.444 193.39 122.336 195.288 123.627 197.58Z" fill-rule="evenodd"  fill="#FFFFFF" >
</path>
<path d="M135.742 192.086C138.088 190.759 140.747 190.088 143.442 190.145C146.878 190.054 150.239 191.169 152.941 193.295C155.476 195.359 157.201 198.254 157.81 201.466L150.111 201.466C149.591 200.135 148.682 198.991 147.501 198.186C146.257 197.376 144.796 196.961 143.312 196.996C142.331 196.965 141.357 197.159 140.464 197.565C139.571 197.971 138.783 198.577 138.162 199.336C136.771 201.118 136.061 203.338 136.162 205.597C136.061 207.846 136.77 210.057 138.162 211.827C138.788 212.579 139.578 213.177 140.47 213.578C141.362 213.978 142.334 214.169 143.312 214.137C144.797 214.177 146.258 213.762 147.501 212.947C148.675 212.157 149.584 211.031 150.111 209.717L157.81 209.717C157.191 212.92 155.468 215.805 152.941 217.868C150.221 219.945 146.861 221.006 143.442 220.868C140.747 220.925 138.088 220.254 135.742 218.928C133.547 217.652 131.767 215.77 130.613 213.507C129.371 211.027 128.75 208.281 128.803 205.507C128.75 202.732 129.371 199.987 130.613 197.506C131.767 195.243 133.547 193.362 135.742 192.086Z"   fill="#FFFFFF" >
</path>
<path d="M159.73 190.58L168.36 190.58L174.53 199.64L179.84 190.58L188.14 190.58L178.65 205.72L188.77 220.65L180.14 220.65L173.8 211.29L168.36 220.65L160.02 220.65L169.64 205.17L159.73 190.58Z"   fill="#FFFFFF" >
</path>
</svg>
