<svg xmlns="http://www.w3.org/2000/svg" xmlns:xlink="http://www.w3.org/1999/xlink" width="199.730224609375" height="240.4000244140625" viewBox="0 0 199.730224609375 240.4000244140625" fill="none">
<path d="M58.6302 171L183.67 171C192.54 171 199.73 178.191 199.73 187.06L199.73 224.34C199.73 233.209 192.54 240.4 183.67 240.4L58.6302 240.4C49.7601 240.4 42.5701 233.209 42.5701 224.34L42.5701 187.06C42.5701 178.191 49.7601 171 58.6302 171Z"   fill="#FF3E4C" >
</path>
<path d="M83.5901 213.77L83.5901 221.04L76.0701 221.04L76.0701 213.77L83.5901 213.77Z"   fill="#FFFFFF" >
</path>
<path d="M87.3801 190.97L99.1593 190.97C102.729 190.97 105.459 191.86 107.329 193.63C108.275 194.56 109.014 195.679 109.496 196.915C109.979 198.151 110.194 199.475 110.129 200.8C110.165 202.548 109.733 204.274 108.879 205.8C108.006 207.291 106.712 208.492 105.159 209.25C103.286 210.135 101.23 210.564 99.1593 210.5L94.6497 210.49L94.6497 221.04L87.3801 221.04L87.3801 190.97ZM98.3493 196.8L94.6497 196.8L94.6497 204.63L98.3493 204.63C101.269 204.657 102.729 203.38 102.729 200.8C102.729 198.133 101.269 196.8 98.3493 196.8Z" fill-rule="evenodd"  fill="#FFFFFF" >
</path>
<path d="M133.438 192.835C135.728 194.019 137.614 195.857 138.857 198.115C140.158 200.513 140.813 203.208 140.757 205.935C140.811 208.672 140.157 211.376 138.857 213.785C137.605 216.059 135.714 217.916 133.418 219.125C130.834 220.448 127.961 221.104 125.059 221.035L113.71 221.035L113.71 190.966L125.059 190.966C127.963 190.893 130.84 191.534 133.438 192.835ZM132.888 202.521C132.481 201.431 131.851 200.438 131.038 199.605C129.22 198.01 126.844 197.197 124.429 197.345L120.979 197.345L120.979 214.525L124.429 214.525C126.842 214.672 129.216 213.863 131.038 212.275C131.851 211.441 132.481 210.446 132.887 209.354C133.293 208.263 133.467 207.098 133.398 205.935C133.468 204.774 133.294 203.611 132.888 202.521Z" fill-rule="evenodd"  fill="#FFFFFF" >
</path>
<path d="M152.16 196.76L152.16 203.35L161.68 203.35L161.68 208.88L152.16 208.88L152.16 221.04L144.88 221.04L144.88 190.97L164.49 190.97L164.49 196.76L152.16 196.76Z"   fill="#FFFFFF" >
</path>
<g opacity="0.3">
<g opacity="0.3">
<path d="M0 26.9099L0 189.13C0 196.268 2.8346 203.112 7.88229 208.159C12.9283 213.206 19.7731 216.04 26.9106 216.04L137.509 216.04C144.647 216.04 151.492 213.206 156.538 208.159C161.585 203.112 164.42 196.268 164.42 189.13L164.42 49.2506L139.67 49.2506C134.201 49.2442 128.958 47.0686 125.092 43.2015C121.225 39.3322 119.053 34.089 119.05 28.621L119.05 0L26.9106 0C19.7731 0 12.9283 2.83444 7.88229 7.88114C2.8346 12.9278 0 19.772 0 26.9099Z"   fill="#FF3E4C" >
</path>
</g>
</g>
<path d="M164.42 49.25L139.67 49.25C134.201 49.2446 128.958 47.0692 125.092 43.2011C121.226 39.333 119.053 34.0889 119.05 28.6202L119.05 0L164.42 49.25Z"   fill="#FF3E4C" >
</path>
<path d="M46.3899 151.381C46.3899 151.381 56.7597 111.549 92.1101 82.688C92.1602 82.688 71.78 88.0785 50.0501 130.81C50.0501 130.81 43.5395 116.98 51.9697 103.479C51.9697 103.479 54.4599 110.739 56.5098 110.269C56.5098 110.269 53.9 99.8585 55.8196 96.7784C55.8196 96.7784 64.1395 84.8482 73.3201 78.398C73.3201 78.398 73.6201 85.4878 75.7795 86.0685C75.7795 86.0685 75.4402 81.6882 78.4896 75.0678C78.4896 75.0678 93.29 63.6671 117.99 64.7068C117.99 64.7068 108.24 79.8074 102.76 89.9879C99.8622 95.4852 96.6782 100.826 93.2199 105.989C93.2199 105.989 85.9596 110.229 81.2197 109.829C81.2197 109.829 85.22 112.969 89.5597 111.419C89.5597 111.419 78.5097 131.42 57.0697 133.94C57.0697 133.94 53.0695 142.17 52.2697 149.381C52.2697 149.381 48.2701 151.801 46.3899 151.381Z" fill-rule="evenodd"  fill="#FF3E4C" >
</path>
</svg>
