<svg xmlns="http://www.w3.org/2000/svg" xmlns:xlink="http://www.w3.org/1999/xlink" width="200" height="240.010009765625" viewBox="0 0 200 240.010009765625" fill="none">
<g opacity="0.3">
<g opacity="0.3">
<path d="M7.88229 7.88114C2.8346 12.9278 0 19.772 0 26.9099L0 189.13C0 196.266 2.8346 203.112 7.88229 208.159C12.9283 213.206 19.7731 216.04 26.9106 216.04L137.509 216.04C144.647 216.04 151.492 213.206 156.538 208.159C161.585 203.112 164.42 196.266 164.42 189.13L164.42 49.2506L139.67 49.2506C134.201 49.2442 128.96 47.0708 125.092 43.2058C121.224 39.3387 119.048 34.0976 119.04 28.6296L119.04 0L26.9106 0C19.7731 0 12.9283 2.83444 7.88229 7.88114Z"   fill="#FF9908" >
</path>
</g>
</g>
<path d="M164.42 49.25L139.67 49.25C134.202 49.2446 128.959 47.0707 125.092 43.2055C121.224 39.3399 119.048 34.0977 119.04 28.63L119.04 0L164.42 49.25Z"   fill="#FF9908" >
</path>
<path d="M24.7085 82.6316C24.0076 81.9308 23.6123 80.9811 23.6101 79.99C23.6101 78.9971 24.0032 78.0448 24.7052 77.3418C25.4061 76.6388 26.3573 76.2426 27.3506 76.24L130.6 76.24C131.593 76.2426 132.544 76.6388 133.245 77.3418C133.947 78.0448 134.34 78.9971 134.34 79.99C134.338 80.9811 133.943 81.9308 133.242 82.6316C132.541 83.3324 131.591 83.7274 130.6 83.73L27.3506 83.73C26.3595 83.7274 25.4095 83.3324 24.7085 82.6316Z"   fill="#FF9908" >
</path>
<path d="M24.7085 105.002C24.0076 104.301 23.6123 103.351 23.6101 102.36C23.6101 101.367 24.0032 100.415 24.7052 99.7118C25.4061 99.0088 26.3573 98.6126 27.3506 98.61L130.6 98.61C131.593 98.6126 132.544 99.0088 133.245 99.7118C133.947 100.415 134.34 101.367 134.34 102.36C134.338 103.351 133.943 104.301 133.242 105.002C132.541 105.702 131.591 106.097 130.6 106.1L27.3506 106.1C26.3595 106.097 25.4095 105.702 24.7085 105.002Z"   fill="#FF9908" >
</path>
<path d="M133.242 122.078C133.943 122.779 134.338 123.729 134.34 124.72C134.34 125.713 133.947 126.665 133.245 127.368C132.544 128.071 131.593 128.467 130.6 128.47L27.3506 128.47C26.3573 128.467 25.4061 128.071 24.7052 127.368C24.0032 126.665 23.6101 125.713 23.6101 124.72C23.6123 123.729 24.0076 122.779 24.7085 122.078C25.4095 121.378 26.3595 120.983 27.3506 120.98L130.6 120.98C131.591 120.983 132.541 121.378 133.242 122.078Z"   fill="#FF9908" >
</path>
<path d="M23.6101 147.09C23.6101 146.097 24.0032 145.145 24.7052 144.442C25.4061 143.739 26.3573 143.343 27.3506 143.34L130.6 143.34C131.593 143.343 132.544 143.739 133.245 144.442C133.947 145.145 134.34 146.097 134.34 147.09C134.34 148.082 133.946 149.033 133.245 149.735C132.543 150.436 131.592 150.83 130.6 150.83L27.3506 150.83C26.3584 150.83 25.4073 150.436 24.7052 149.735C24.0043 149.033 23.6101 148.082 23.6101 147.09Z"   fill="#FF9908" >
</path>
<path d="M58.9003 170.61L183.94 170.61C192.81 170.61 200 177.801 200 186.67L200 223.95C200 232.819 192.81 240.01 183.94 240.01L58.9003 240.01C50.0302 240.01 42.8401 232.819 42.8401 223.95L42.8401 186.67C42.8401 177.801 50.0302 170.61 58.9003 170.61Z"   fill="#FF9908" >
</path>
<path d="M85.56 213.38L85.56 220.65L78.03 220.65L78.03 213.38L85.56 213.38Z"   fill="#FFFFFF" >
</path>
<path d="M110.95 190.58L110.95 196.37L102.78 196.37L102.78 220.65L95.47 220.65L95.47 196.37L87.3799 196.37L87.3799 190.58L110.95 190.58Z"   fill="#FFFFFF" >
</path>
<path d="M120.47 220.65L112.14 220.65L121.75 205.17L111.84 190.58L120.47 190.58L126.64 199.64L131.96 190.58L140.25 190.58L130.77 205.72L140.89 220.65L132.26 220.65L125.92 211.29L120.47 220.65Z"   fill="#FFFFFF" >
</path>
<path d="M165.3 190.58L165.3 196.37L157.14 196.37L157.14 220.65L149.82 220.65L149.82 196.37L141.74 196.37L141.74 190.58L165.3 190.58Z"   fill="#FFFFFF" >
</path>
</svg>
